<svg width="500" height="500" viewBox="0 0 500 500" fill="none" xmlns="http://www.w3.org/2000/svg">
<circle cx="250" cy="250" r="237" stroke="#5654F6" stroke-width="26"/>
<path d="M46.84 249.52C46.84 241.2 48.56 233.8 52 227.32C55.52 220.76 60.48 215.68 66.88 212.08C73.28 208.4 80.64 206.56 88.96 206.56C99.52 206.56 108.4 209.4 115.6 215.08C122.8 220.68 127.44 228.32 129.52 238H104.2C102.68 234.8 100.56 232.36 97.84 230.68C95.2 229 92.12 228.16 88.6 228.16C83.16 228.16 78.8 230.12 75.52 234.04C72.32 237.88 70.72 243.04 70.72 249.52C70.72 256.08 72.32 261.32 75.52 265.24C78.8 269.08 83.16 271 88.6 271C92.12 271 95.2 270.16 97.84 268.48C100.56 266.8 102.68 264.36 104.2 261.16H129.52C127.44 270.84 122.8 278.52 115.6 284.2C108.4 289.8 99.52 292.6 88.96 292.6C80.64 292.6 73.28 290.8 66.88 287.2C60.48 283.52 55.52 278.44 52 271.96C48.56 265.4 46.84 257.92 46.84 249.52ZM195.378 257.56C195.378 259.4 195.258 261.24 195.018 263.08H150.498C150.738 266.76 151.738 269.52 153.498 271.36C155.338 273.12 157.658 274 160.458 274C164.378 274 167.178 272.24 168.858 268.72H193.938C192.898 273.36 190.858 277.52 187.818 281.2C184.858 284.8 181.098 287.64 176.538 289.72C171.978 291.8 166.938 292.84 161.418 292.84C154.778 292.84 148.858 291.44 143.658 288.64C138.538 285.84 134.498 281.84 131.538 276.64C128.658 271.44 127.218 265.32 127.218 258.28C127.218 251.24 128.658 245.16 131.538 240.04C134.418 234.84 138.418 230.84 143.538 228.04C148.738 225.24 154.698 223.84 161.418 223.84C168.058 223.84 173.938 225.2 179.058 227.92C184.178 230.64 188.178 234.56 191.058 239.68C193.938 244.72 195.378 250.68 195.378 257.56ZM171.378 251.68C171.378 248.8 170.418 246.56 168.498 244.96C166.578 243.28 164.178 242.44 161.298 242.44C158.418 242.44 156.058 243.24 154.218 244.84C152.378 246.36 151.178 248.64 150.618 251.68H171.378ZM239.443 224.08C247.203 224.08 253.363 226.68 257.923 231.88C262.483 237 264.763 243.96 264.763 252.76V292H241.243V255.88C241.243 252.04 240.243 249.04 238.243 246.88C236.243 244.64 233.563 243.52 230.203 243.52C226.683 243.52 223.923 244.64 221.923 246.88C219.923 249.04 218.923 252.04 218.923 255.88V292H195.403V224.68H218.923V234.28C221.003 231.24 223.803 228.8 227.323 226.96C230.843 225.04 234.883 224.08 239.443 224.08ZM307.788 271.96V292H297.588C280.388 292 271.788 283.48 271.788 266.44V244.24H263.508V224.68H271.788V208.36H295.428V224.68H307.668V244.24H295.428V266.8C295.428 268.64 295.828 269.96 296.628 270.76C297.508 271.56 298.948 271.96 300.948 271.96H307.788ZM332.496 236.56C335.136 232.72 338.336 229.68 342.096 227.44C345.856 225.2 349.896 224.08 354.216 224.08V249.16H347.616C342.496 249.16 338.696 250.16 336.216 252.16C333.736 254.16 332.496 257.64 332.496 262.6V292H308.976V224.68H332.496V236.56ZM349.208 258.28C349.208 251.32 350.448 245.24 352.928 240.04C355.488 234.84 358.928 230.84 363.248 228.04C367.648 225.24 372.528 223.84 377.888 223.84C382.528 223.84 386.528 224.76 389.888 226.6C393.248 228.44 395.848 230.92 397.688 234.04V224.68H421.208V292H397.688V282.64C395.848 285.76 393.208 288.24 389.768 290.08C386.408 291.92 382.448 292.84 377.888 292.84C372.528 292.84 367.648 291.44 363.248 288.64C358.928 285.84 355.488 281.84 352.928 276.64C350.448 271.36 349.208 265.24 349.208 258.28ZM397.688 258.28C397.688 253.96 396.488 250.56 394.088 248.08C391.768 245.6 388.888 244.36 385.448 244.36C381.928 244.36 379.008 245.6 376.688 248.08C374.368 250.48 373.208 253.88 373.208 258.28C373.208 262.6 374.368 266.04 376.688 268.6C379.008 271.08 381.928 272.32 385.448 272.32C388.888 272.32 391.768 271.08 394.088 268.6C396.488 266.12 397.688 262.68 397.688 258.28ZM448.531 203.2V292H425.011V203.2H448.531Z" fill="#5654F6"/>
<rect x="235" y="346" width="30" height="141" fill="#5654F6"/>
<path d="M235 15H265V184H235V15Z" fill="#5654F6"/>
<path d="M250 303L293.301 378H206.699L250 303Z" fill="#5654F6"/>
<path d="M250 210L206.699 135L293.301 135L250 210Z" fill="#5654F6"/>
</svg>
